<svg xmlns="http://www.w3.org/2000/svg" viewBox="0 0 760 80">
  <style>
    .txt{font: 800 44px 'Inter', system-ui, -apple-system, Segoe UI, Roboto, Helvetica, Arial}
    .brand{fill:#111827}
    .accent{fill:#7c3aed}
  </style>
  <g>
    <circle cx="36" cy="40" r="32" fill="#7c3aed"/>
    <path fill="#fff" d="M24 22c-9 0-16 7-16 18s7 18 16 18h9v-7h-9c-5 0-9-4-9-11s4-11 9-11h9v-7h-9zM44 22v36h15c7 0 12-6 12-12s-5-12-12-12h-8v-12h-7zm7 19h8c3 0 5 2 5 5s-2 5-5 5h-8v-10z"/>
    <text class="txt brand" x="80" y="52">Creator</text>
    <text class="txt accent" x="260" y="52">Pass</text>
  </g>
</svg>